<?xml version="1.0" encoding="utf-8"?>
<!-- Generator: Adobe Illustrator 23.0.3, SVG Export Plug-In . SVG Version: 6.00 Build 0)  -->
<svg version="1.1" id="Layer_1" xmlns="http://www.w3.org/2000/svg" xmlns:xlink="http://www.w3.org/1999/xlink" x="0px" y="0px"
	 viewBox="0 0 394.08 134.94" style="enable-background:new 0 0 394.08 134.94;" xml:space="preserve">
<style type="text/css">
	.st0{fill:url(#SVGID_1_);}
	.st1{fill:#365888;}
	.st2{fill:#FFFFFF;}
</style>
<g>
	<radialGradient id="SVGID_1_" cx="191.1247" cy="65.5398" r="49.987" gradientUnits="userSpaceOnUse">
		<stop  offset="0" style="stop-color:#7BCAEF"/>
		<stop  offset="1" style="stop-color:#365888"/>
	</radialGradient>
	<rect x="156.93" y="29.87" class="st0" width="70.92" height="70.92"/>
	<path class="st1" d="M225.4,12.37c0,0-32.87,63.99-2.93,116.54C222.47,128.91,175.18,65.23,225.4,12.37z"/>
	<path class="st1" d="M161.43,80.75c0,0,20.9-5.42,42.24,29.06C203.67,109.81,190.66,64.9,161.43,80.75z"/>
	<path class="st1" d="M177.83,68.54c6.8,0.24,12.5-5.1,12.77-11.88c0.24-6.8-5.07-12.5-11.92-12.75c-4.56-0.14-8.59,2.18-10.87,5.81
		c2.11-6.38,8.21-10.88,15.29-10.61c8.54,0.33,15.23,7.51,14.93,16.06c-0.28,8.58-7.47,15.26-16.04,14.96
		c-2.65-0.09-5.11-0.86-7.24-2.1C175.75,68.31,176.75,68.48,177.83,68.54"/>
	<path class="st2" d="M222.97,8.71c0,0-32.89,64-2.94,116.54C220.03,125.25,172.72,61.57,222.97,8.71z"/>
	<path class="st2" d="M159.01,77.1c0,0,20.89-5.44,42.22,29.05C201.23,106.15,188.22,61.24,159.01,77.1z"/>
	<path class="st2" d="M175.39,64.89c6.8,0.22,12.49-5.09,12.74-11.89c0.29-6.81-5.03-12.51-11.86-12.75
		c-4.56-0.15-8.61,2.17-10.89,5.81c2.1-6.39,8.2-10.87,15.26-10.63c8.57,0.33,15.25,7.52,14.94,16.08
		c-0.27,8.57-7.46,15.25-16.02,14.96c-2.67-0.09-5.11-0.85-7.25-2.09C173.3,64.67,174.32,64.83,175.39,64.89"/>
</g>
<g>
	<g>
		<g>
			<path class="st1" d="M258.38,63.02v23.72h-6.98V63.02h-2.98v-6.5h2.98v-11.1h6.98v11.1h5.43v6.5H258.38z"/>
			<path class="st1" d="M250.53,44.55c0,0,0,9.63,0,11.11c-0.86,0-2.97,0-2.97,0v8.23c0,0,2.11,0,2.97,0c0,1.6,0,23.71,0,23.71h8.7
				c0,0,0-22.12,0-23.71c1.22,0,5.43,0,5.43,0v-8.23c0,0-4.21,0-5.43,0c0-1.48,0-11.11,0-11.11H250.53z M257.5,46.28
				c0,1.47,0,11.1,0,11.1s4.22,0,5.45,0c0,1.1,0,3.68,0,4.78c-1.22,0-5.45,0-5.45,0s0,22.11,0,23.71c-1.14,0-4.11,0-5.25,0
				c0-1.6,0-23.71,0-23.71s-2.11,0-2.98,0c0-1.11,0-3.69,0-4.78c0.87,0,2.98,0,2.98,0s0-9.63,0-11.1
				C253.39,46.28,256.37,46.28,257.5,46.28z"/>
		</g>
		<g>
			<path class="st1" d="M269.86,34.28h6.98v24.73c2.47-2.24,5.22-3.35,8.21-3.35c3.41,0,6.14,1.11,8.19,3.32
				c1.74,1.92,2.61,5.01,2.61,9.22v18.54h-6.98V68.85c0-2.43-0.43-4.18-1.29-5.27c-0.85-1.08-2.24-1.62-4.15-1.62
				c-2.44,0-4.15,0.76-5.14,2.28c-0.97,1.52-1.45,4.14-1.45,7.88v14.62h-6.98V34.28z"/>
			<path class="st1" d="M269,33.42V87.6h8.69V72.12c0-3.56,0.45-6.05,1.33-7.44c0.82-1.24,2.26-1.86,4.4-1.86
				c1.65,0,2.79,0.43,3.48,1.29c0.73,0.94,1.1,2.51,1.1,4.74V87.6h8.72v-19.4c0-4.42-0.97-7.72-2.84-9.8
				c-2.22-2.4-5.19-3.61-8.83-3.61c-2.64,0-5.1,0.85-7.36,2.47c0-3.02,0-23.83,0-23.83H269z M275.95,35.14c0,1.6,0,25.8,0,25.8
				l1.45-1.3c2.35-2.11,4.83-3.13,7.65-3.13c3.19,0,5.66,0.99,7.56,3.04c1.57,1.75,2.36,4.66,2.36,8.64c0,0,0,16.12,0,17.68
				c-1.13,0-4.1,0-5.25,0c0-1.56,0-17.02,0-17.02c0-2.64-0.47-4.54-1.46-5.8c-1.02-1.3-2.66-1.96-4.83-1.96
				c-2.73,0-4.7,0.89-5.87,2.66c-1.06,1.71-1.61,4.44-1.61,8.37c0,0,0,12.23,0,13.75c-1.12,0-4.11,0-5.24,0c0-1.64,0-49.09,0-50.73
				C271.84,35.14,274.83,35.14,275.95,35.14z"/>
		</g>
		<g>
			<path class="st1" d="M303.66,43.92c0-1.22,0.45-2.28,1.33-3.18c0.9-0.88,1.96-1.31,3.21-1.31c1.26,0,2.34,0.44,3.22,1.31
				c0.9,0.87,1.34,1.95,1.34,3.21c0,1.26-0.45,2.34-1.34,3.22c-0.87,0.89-1.95,1.34-3.2,1.34c-1.25,0-2.33-0.45-3.23-1.34
				C304.1,46.3,303.66,45.2,303.66,43.92z M311.7,56.51v30.23h-6.98V56.51H311.7z"/>
			<path class="st1" d="M304.38,40.15c-1.04,1.05-1.6,2.32-1.6,3.78c0,1.5,0.55,2.81,1.6,3.87c1.06,1.06,2.35,1.6,3.84,1.6
				c1.5,0,2.78-0.54,3.82-1.6c1.04-1.05,1.58-2.34,1.58-3.83c0-1.5-0.53-2.78-1.6-3.83c-1.03-1.04-2.34-1.58-3.82-1.58
				C306.72,38.55,305.44,39.09,304.38,40.15z M305.6,46.57c-0.73-0.73-1.08-1.59-1.08-2.65c0-0.99,0.35-1.82,1.08-2.55
				c0.72-0.73,1.57-1.09,2.59-1.09c1.03,0,1.88,0.35,2.61,1.09c0.73,0.71,1.08,1.56,1.08,2.59c0,1.03-0.36,1.88-1.08,2.6
				c-0.7,0.74-1.55,1.09-2.59,1.09C307.18,47.65,306.32,47.3,305.6,46.57z"/>
			<path class="st1" d="M303.86,55.66V87.6h8.69V55.66H303.86z M310.83,57.38c0,1.58,0,26.92,0,28.5c-1.13,0-4.11,0-5.26,0
				c0-1.58,0-26.91,0-28.5C306.72,57.38,309.69,57.38,310.83,57.38z"/>
		</g>
		<g>
			<path class="st1" d="M342.81,103.21V83.35c-2.77,2.83-5.95,4.25-9.5,4.25c-4.07,0-7.47-1.5-10.15-4.5
				c-2.71-3.03-4.07-6.8-4.07-11.33c0-4.6,1.37-8.44,4.07-11.53c2.73-3.07,6.15-4.59,10.27-4.59c3.49,0,6.63,1.37,9.37,4.15v-3.29
				h7.02v46.69H342.81z M326.23,71.47c0,2.91,0.79,5.28,2.36,7.1c1.56,1.86,3.57,2.8,6,2.8c2.55,0,4.63-0.9,6.23-2.67
				c1.61-1.8,2.42-4.15,2.42-7.01c0-2.85-0.81-5.18-2.39-7.02c-1.59-1.8-3.68-2.71-6.22-2.71c-2.4,0-4.4,0.91-6.01,2.72
				C327.03,66.54,326.23,68.8,326.23,71.47z"/>
			<path class="st1" d="M322.51,59.66c-2.84,3.25-4.29,7.31-4.29,12.1c0,4.73,1.45,8.74,4.29,11.9c2.85,3.18,6.5,4.8,10.81,4.8
				c3.18,0,6.05-1.14,8.65-3.25c0,3.09,0,18.84,0,18.84h8.73V55.66h-8.73c0,0,0,1.58,0,2.28c-2.57-2.05-5.42-3.14-8.52-3.14
				C329.08,54.79,325.4,56.43,322.51,59.66z M323.8,82.53c-2.54-2.85-3.85-6.47-3.85-10.76c0-4.36,1.3-8.05,3.87-10.95
				c2.56-2.9,5.73-4.31,9.62-4.31c3.3,0,6.13,1.27,8.76,3.89l1.48,1.48c0,0,0-3.58,0-4.51c1.14,0,4.16,0,5.29,0
				c0,1.63,0,43.33,0,44.96c-1.14,0-4.15,0-5.29,0c0-1.58,0-21.1,0-21.1l-1.48,1.51c-2.63,2.69-5.54,4-8.89,4
				C329.45,86.74,326.35,85.35,323.8,82.53z"/>
			<path class="st1" d="M327.96,64.12c-1.73,2.01-2.6,4.47-2.6,7.36c0,3.11,0.87,5.69,2.57,7.67c1.73,2.05,3.97,3.08,6.66,3.08
				c2.81,0,5.12-0.98,6.88-2.95c1.76-1.95,2.64-4.51,2.64-7.59c0-3.05-0.86-5.59-2.6-7.59c-1.77-2-4.09-3-6.87-3
				C332,61.1,329.74,62.11,327.96,64.12z M329.25,78.02c-1.44-1.66-2.15-3.86-2.15-6.55c0-2.49,0.71-4.53,2.16-6.21
				c1.48-1.63,3.22-2.44,5.38-2.44c2.32,0,4.14,0.78,5.57,2.4c1.43,1.67,2.18,3.85,2.18,6.46c0,2.63-0.74,4.8-2.21,6.43
				c-1.44,1.6-3.26,2.39-5.59,2.39C332.4,80.5,330.66,79.7,329.25,78.02z"/>
		</g>
		<g>
			<path class="st1" d="M380.93,56.51h7.02v30.23h-7.02v-3.17c-2.88,2.69-5.97,4.03-9.27,4.03c-4.2,0-7.65-1.5-10.37-4.53
				c-2.72-3.08-4.07-6.93-4.07-11.54c0-4.54,1.35-8.32,4.07-11.34c2.72-3.03,6.1-4.53,10.18-4.53c3.52,0,6.68,1.45,9.47,4.37V56.51z
				 M364.35,71.53c0,2.9,0.78,5.25,2.33,7.08c1.59,1.83,3.6,2.76,6.02,2.76c2.58,0,4.68-0.9,6.28-2.67
				c1.59-1.84,2.38-4.18,2.38-7.01c0-2.85-0.79-5.18-2.38-7.02c-1.6-1.8-3.66-2.71-6.22-2.71c-2.39,0-4.4,0.91-6.01,2.72
				C365.15,66.54,364.35,68.81,364.35,71.53z"/>
			<path class="st1" d="M360.64,59.61c-2.85,3.17-4.28,7.17-4.28,11.91c0,4.81,1.43,8.89,4.28,12.12c2.9,3.2,6.61,4.82,11.02,4.82
				c2.97,0,5.78-1.09,8.41-3.1c0,0.67,0,2.24,0,2.24h8.75V55.66h-8.75c0,0,0,1.66,0,2.44c-2.58-2.15-5.46-3.31-8.6-3.31
				C367.16,54.79,363.5,56.41,360.64,59.61z M361.92,82.49c-2.54-2.9-3.84-6.6-3.84-10.97c0-4.3,1.31-7.92,3.84-10.76
				c2.57-2.86,5.69-4.25,9.55-4.25c3.3,0,6.19,1.35,8.86,4.1l1.48,1.55c0,0,0-3.82,0-4.79c1.15,0,4.15,0,5.28,0
				c0,1.58,0,26.92,0,28.5c-1.13,0-4.14,0-5.28,0c0-0.92,0-4.29,0-4.29l-1.45,1.35c-2.71,2.52-5.61,3.8-8.69,3.8
				C367.67,86.74,364.51,85.35,361.92,82.49z"/>
			<path class="st1" d="M366.1,64.12c-1.74,2.01-2.61,4.5-2.61,7.41c0,3.09,0.84,5.66,2.53,7.64c1.76,2.04,4,3.06,6.67,3.06
				c2.84,0,5.17-0.98,6.92-2.95c1.74-2.01,2.62-4.56,2.62-7.59c0-3.05-0.88-5.59-2.61-7.59c-1.76-2-4.07-3-6.87-3
				C370.12,61.1,367.87,62.11,366.1,64.12z M367.32,78.04c-1.4-1.64-2.11-3.84-2.11-6.51c0-2.52,0.71-4.58,2.18-6.27
				c1.46-1.63,3.21-2.44,5.37-2.44c2.32,0,4.14,0.78,5.58,2.4c1.44,1.67,2.17,3.85,2.17,6.46c0,2.6-0.73,4.77-2.18,6.45
				c-1.43,1.57-3.27,2.36-5.63,2.36C370.52,80.5,368.76,79.7,367.32,78.04z"/>
		</g>
	</g>
</g>
<g>
	<path class="st1" d="M127.32,82.4v6.59H33.09V82.4h44.12c-2.52-2.68-3.81-5.58-3.81-8.68c0-3.92,1.42-7.15,4.26-9.72
		c2.9-2.54,6.51-3.81,10.84-3.81c4.28,0,7.81,1.27,10.65,3.81c2.83,2.54,4.25,5.72,4.25,9.54c0,3.29-1.36,6.25-4.07,8.86H127.32z
		 M88.52,66.88c-2.72,0-4.94,0.73-6.65,2.18c-1.72,1.5-2.59,3.37-2.59,5.65c0,2.42,0.83,4.38,2.52,5.87
		c1.72,1.5,3.92,2.25,6.57,2.25c2.66,0,4.86-0.75,6.58-2.25c1.71-1.49,2.54-3.43,2.54-5.81c0-2.24-0.85-4.13-2.56-5.65
		C93.19,67.62,91.07,66.88,88.52,66.88z"/>
	<path class="st1" d="M77.14,63.39c-3.01,2.72-4.54,6.19-4.54,10.33l0,0c0,2.77,1.02,5.42,2.92,7.88c-3.13,0-43.24,0-43.24,0v8.2
		h95.85v-8.2c0,0-23.89,0-27.01,0c2.01-2.43,3.08-5.12,3.08-8.06c0-4.05-1.5-7.46-4.52-10.14c-2.98-2.67-6.73-4.03-11.18-4.03
		C84,59.38,80.16,60.73,77.14,63.39z M79.08,83.23l-1.27-1.37c-2.39-2.53-3.58-5.27-3.58-8.14l0,0c0-3.71,1.29-6.7,3.99-9.12
		C80.93,62.22,84.39,61,88.5,61c4.05,0,7.43,1.22,10.12,3.61c2.67,2.4,3.97,5.32,3.97,8.94c0,3.09-1.25,5.8-3.82,8.29l-1.45,1.4
		c0,0,27.67,0,29.19,0c0,1.05,0,3.89,0,4.95c-1.58,0-91.04,0-92.6,0c0-1.06,0-3.9,0-4.95C35.46,83.23,79.08,83.23,79.08,83.23z"/>
	<path class="st1" d="M81.35,68.44c-1.9,1.65-2.88,3.76-2.88,6.27c0,2.64,0.94,4.84,2.78,6.48c1.88,1.63,4.27,2.44,7.12,2.44
		c2.86,0,5.24-0.81,7.12-2.43c1.86-1.65,2.82-3.81,2.82-6.43c0-2.48-0.96-4.59-2.85-6.26c-1.88-1.61-4.22-2.44-6.94-2.44
		C85.6,66.06,83.2,66.86,81.35,68.44z M82.32,79.96c-1.5-1.34-2.24-3.05-2.24-5.26c0-2.06,0.75-3.7,2.31-5.04
		c1.56-1.3,3.62-1.98,6.12-1.98c2.35,0,4.29,0.68,5.87,2.04c1.54,1.36,2.29,3.02,2.29,5.04c0,2.16-0.75,3.87-2.27,5.22
		c-1.56,1.34-3.6,2.03-6.06,2.03C85.92,82,83.88,81.32,82.32,79.96z"/>
</g>
<rect x="126.51" y="59.79" class="st1" width="8.15" height="30.01"/>
<g>
	<path class="st1" d="M25.68,59.79c0,0,0,1.56,0,2.32c-2.42-2.02-5.11-3.09-8.06-3.09c-4.04,0-7.45,1.53-10.13,4.52
		c-2.67,2.97-4.02,6.73-4.02,11.18c0,4.51,1.34,8.34,3.99,11.38c2.73,3,6.19,4.52,10.33,4.52c2.77,0,5.43-1.02,7.88-2.91
		c0,0.62,0,2.09,0,2.09h8.22V59.79H25.68z M18.79,83.14c-2.04,0-3.67-0.75-5.02-2.3c-1.32-1.56-1.99-3.62-1.99-6.12
		c0-2.36,0.66-4.3,2.04-5.89c1.37-1.53,3.01-2.28,5.03-2.28c2.16,0,3.87,0.74,5.23,2.26c1.35,1.59,2.03,3.57,2.03,6.06
		c0,2.47-0.68,4.45-2.06,6.05C22.72,82.4,20.99,83.14,18.79,83.14z"/>
	<path class="st1" d="M14.36,53.74c1.42,0,2.62-0.51,3.61-1.5c0.97-0.98,1.47-2.19,1.47-3.6c0-1.4-0.5-2.61-1.5-3.58
		c-0.99-0.98-2.19-1.48-3.59-1.48c-1.37,0-2.6,0.5-3.57,1.48c-1,0.99-1.51,2.18-1.51,3.56c0,1.42,0.51,2.64,1.51,3.64
		C11.74,53.23,12.97,53.74,14.36,53.74z"/>
	<path class="st1" d="M25.29,53.74c1.39,0,2.59-0.51,3.57-1.5c0.98-0.98,1.49-2.19,1.49-3.6c0-1.4-0.51-2.61-1.51-3.58
		c-0.98-0.98-2.19-1.48-3.59-1.48c-1.39,0-2.59,0.5-3.57,1.48c-0.99,0.99-1.49,2.19-1.49,3.56c0,1.42,0.5,2.64,1.49,3.64
		C22.66,53.23,23.88,53.74,25.29,53.74z"/>
</g>
<g>
	<path class="st1" d="M119.98,43.59c-1.38,0-2.56,0.5-3.57,1.48c-0.99,0.99-1.49,2.19-1.49,3.56c0,1.42,0.51,2.64,1.49,3.64
		c1.01,0.97,2.2,1.48,3.61,1.48c1.4,0,2.6-0.51,3.58-1.5c0.98-0.98,1.47-2.19,1.47-3.6c0-1.4-0.48-2.61-1.49-3.58
		C122.58,44.09,121.38,43.59,119.98,43.59z"/>
	<path class="st1" d="M135.72,45.07c-1-0.98-2.21-1.48-3.6-1.48c-1.39,0-2.59,0.5-3.58,1.48c-0.98,0.99-1.49,2.19-1.49,3.56
		c0,1.42,0.51,2.64,1.49,3.64c0.99,0.97,2.21,1.48,3.6,1.48c1.42,0,2.6-0.51,3.58-1.5c0.99-0.98,1.49-2.19,1.49-3.6
		S136.72,46.04,135.72,45.07z"/>
	<path class="st1" d="M81.7,43.59c-1.39,0-2.59,0.5-3.58,1.48c-0.98,0.99-1.49,2.19-1.49,3.56c0,1.42,0.51,2.64,1.5,3.64
		c0.98,0.97,2.18,1.48,3.59,1.48c1.4,0,2.6-0.51,3.58-1.5c0.98-0.98,1.49-2.19,1.49-3.6s-0.5-2.61-1.51-3.58
		C84.32,44.09,83.09,43.59,81.7,43.59z"/>
	<path class="st1" d="M92.6,43.59c-1.38,0-2.59,0.5-3.57,1.48c-0.98,0.99-1.49,2.19-1.49,3.56c0,1.42,0.5,2.64,1.49,3.64
		c0.99,0.97,2.21,1.48,3.61,1.48c1.4,0,2.59-0.51,3.56-1.5c0.98-0.98,1.49-2.18,1.49-3.6c0-1.4-0.51-2.61-1.49-3.58
		C95.22,44.09,94,43.59,92.6,43.59z"/>
	<path class="st1" d="M130.61,38.49c0-1.41-0.5-2.59-1.49-3.58c-0.98-0.98-2.19-1.48-3.59-1.48c-1.38,0-2.59,0.5-3.57,1.48
		c-1,1-1.49,2.18-1.49,3.55c0,1.43,0.5,2.65,1.49,3.63c0.99,0.99,2.2,1.5,3.6,1.5c1.4,0,2.61-0.51,3.58-1.5
		C130.11,41.1,130.61,39.89,130.61,38.49z"/>
</g>
</svg>
