<?xml version="1.0" encoding="UTF-8"?> <svg xmlns="http://www.w3.org/2000/svg" id="Layer_1" data-name="Layer 1" viewBox="0 0 731.29 219.27"><defs><style>.cls-1{fill:#353535;}.cls-2{fill:#626364;}.cls-3{fill:#1c583f;}.cls-4{fill:#a8abad;}</style></defs><path class="cls-1" d="M86.44,26.58l0,.12-.11-.12a23.92,23.92,0,0,0-4.86,0,15,15,0,0,0-2,0A42.68,42.68,0,0,0,46.78,46.05c.55,0,1.2.17,1.74,0a51,51,0,0,1,4.42-5.4,30.28,30.28,0,0,1,4.25-3.66c1.43.94,3,1.69,4.37,2.57a48.07,48.07,0,0,0-4.69,6.54,3.22,3.22,0,0,0,1.63,0,42.84,42.84,0,0,1,4.56-5.84c2.34.88,4.63,1.8,7,2.45l.22.22L69,46.05a5.23,5.23,0,0,0,1.58,0c.49-.93.87-2,1.42-2.88a53.56,53.56,0,0,0,9.86,1.19c.44.38.12,1.2.27,1.69h1.48c.16-.55-.06-1.15.16-1.63a51.83,51.83,0,0,0,9.54-1.25l.28,0L95,46.05a3.4,3.4,0,0,0,1.52-.11l-1.36-3.16.1-.12a55.09,55.09,0,0,0,7.26-2.61,52.3,52.3,0,0,1,4.69,6,4.71,4.71,0,0,0,1.63-.11,22.88,22.88,0,0,0-2.35-3.43,23.17,23.17,0,0,0-2.38-2.94v-.28L107.9,37l.54-.22a40.7,40.7,0,0,1,8.61,9.11c.66,0,1.2.22,1.75,0A43.11,43.11,0,0,0,86.44,26.58ZM62.81,38.21a18.23,18.23,0,0,1-4.15-2.28v-.1A38.94,38.94,0,0,1,70,30.05c.17-.17.28-.33.49-.33v.12c.43.1.76-.38,1.15-.06s.7.49,1,.76A54.74,54.74,0,0,0,62.81,38.21Zm8.35,3-.22.06A44.82,44.82,0,0,1,64.45,39l.11-.33a43.21,43.21,0,0,1,9.63-7.14c.82.32,1.65.6,2.46,1l-.17.45A68.39,68.39,0,0,0,71.16,41.2ZM82,42.66a19.72,19.72,0,0,1-4.41-.16,28,28,0,0,1-4.8-.88,47.74,47.74,0,0,1,5.68-8.55l3.49.49C82.09,36.4,82,39.67,82,42.66ZM74.44,29.75c-.27-.21-.82-.31-.86-.7a39.84,39.84,0,0,1,18.3,0v.11A16.41,16.41,0,0,1,74.44,29.75Zm9.22,13c-.11-2.89,0-6.11,0-9.1,1.09-.18,2.27-.34,3.37-.51a47.13,47.13,0,0,1,5.62,8.51,37.87,37.87,0,0,1-9,1.09Zm17.39-3.79a33.24,33.24,0,0,1-6.65,2.27c-1.72-2.94-3.6-5.8-5.61-8.56.75-.44,1.69-.76,2.5-1.2a38.46,38.46,0,0,1,9.87,7.31Zm5.73-3L103,38h-.27A47.71,47.71,0,0,0,93,30.51c.11-.38.64-.66,1-.92a39,39,0,0,1,12.81,6.07Z" transform="translate(-32.26 -23.13)"></path><path class="cls-1" d="M82.62,51.67c-6-2.57-14.42-2.84-19.84,1.14-3.55,2.62-4.63,7.3-3.71,11.45.71,3.93,4.42,6.83,8,8.18,4.85,1.74,9.92,3,14.83,4.69.49.21,1.14.7,1,1.3s-.5.76-.88,1a14.36,14.36,0,0,1-14.42-3.6c-.44-.54-.71-1.19-1.14-1.74l-7.36.06c-.11,4.41-.17,9.48,0,13.84l8.17,0,.11-2.62c.93.44,1.86,1,2.78,1.47,5.67,2.4,13,3,18.6,0a11.27,11.27,0,0,0,5.66-11.44c-.59-4.64-5-8.84-9.38-10L71.91,61.48l-1-.5a1.5,1.5,0,0,1-.61-1.47c1-1.8,3.44-1.25,5.24-1.2,3.79.55,7.74,1.86,10,5.41,2.39,0,5.17.05,7.79-.06.11-4.47,0-8.4-.11-12.91-2.46,0-5.45,0-7.9.06a11.06,11.06,0,0,1-.17,2.27Z" transform="translate(-32.26 -23.13)"></path><path class="cls-1" d="M134.3,60.07a14.54,14.54,0,0,0-5.47-6.66c-7.08-4.55-17.88-4.91-25.18-.76A15,15,0,0,0,96.22,63c-1.46,6.92-1.07,15.18,4.15,20.34,6.08,5.45,15,6.65,22.89,4.42a10.66,10.66,0,0,0,2.4-.83l.23-.1a16.22,16.22,0,0,0,6.54-5C136.49,75.82,136.73,66.82,134.3,60.07ZM121.44,75.6a4.29,4.29,0,0,1-2.5,3.16,8.34,8.34,0,0,1-7.15-.43c-1.69-1.21-1.91-3.23-2.13-5.13-.16-3.8-.44-7.74.6-11.18.82-2.13,3-2.67,5.07-2.83,2.14,0,4.2.33,5.51,2.07.81,1.26.76,2.89.93,4.36C121.71,68.73,122,72.44,121.44,75.6Z" transform="translate(-32.26 -23.13)"></path><path class="cls-1" d="M36.25,50.14l-3.38,0c-.06,2.89-.06,6.27,0,9.22,1.85.05,3.6,0,5.39.16V78.11l0,.76-5.4.11c-.11,3-.11,6,0,9h24V79c-1.79-.11-3.79,0-5.55-.17l0-19.1.11-.17,5.39,0c.06-3.1.12-6.43,0-9.27Z" transform="translate(-32.26 -23.13)"></path><path class="cls-1" d="M117.35,92.06a41.74,41.74,0,0,1-8.35,9c-.1.17-.42.11-.54,0-1.35-.88-2.83-1.58-4.14-2.46A47.08,47.08,0,0,0,109.1,92h-1.69a39.7,39.7,0,0,1-4.55,5.93,60.55,60.55,0,0,0-7-2.5l-.27-.22A28.52,28.52,0,0,0,96.87,92H95.4l-1.48,2.94a69,69,0,0,0-10-1.31c-.17-.49,0-1.21-.17-1.63H82.21c-.11.64.16,1.14-.17,1.69a63.34,63.34,0,0,0-9.81,1.19L70.75,92a4.51,4.51,0,0,0-1.51.05l1.37,3.22-.17.16A65.36,65.36,0,0,0,63.25,98l-.22-.1a44.75,44.75,0,0,1-4.2-5.41c-.26-.92-1.36-.37-2-.48a47.19,47.19,0,0,0,4.79,6.7,47,47,0,0,1-4.47,2.56,39,39,0,0,1-8.62-9.19,6.41,6.41,0,0,0-1.75,0,42.89,42.89,0,0,0,16.41,14.88.05.05,0,0,1,.06,0c.06,0,.16.11.05.16a43.64,43.64,0,0,0,13.74,4.3,42.6,42.6,0,0,0,42-19.29A9.65,9.65,0,0,0,117.35,92.06ZM94.62,97l.16-.1a29.67,29.67,0,0,1,6.65,2.33,33.28,33.28,0,0,1-6.07,5.23c-1.25.76-2.51,1.59-3.8,2.24l-2.33-1,.15-.39A66.13,66.13,0,0,0,94.62,97ZM83.88,95.33a41.63,41.63,0,0,1,9.1,1.1l.06.16A55.86,55.86,0,0,1,87.53,105a15,15,0,0,1-2.73-.32l-.92-.12c-.12-3.21-.16-6.07,0-9.26Zm-10.52,1a47.55,47.55,0,0,1,8.82-1l.06,9.22c-1.13.26-2.4.26-3.49.54a48.23,48.23,0,0,1-5.67-8.55Zm-8.78,3a36.53,36.53,0,0,1,6.65-2.36h.24a82.2,82.2,0,0,0,5.5,8.66c-.76.44-1.69.71-2.45,1.15A36,36,0,0,1,64.6,99.4Zm7,9.32a38.43,38.43,0,0,1-12.75-6.07v-.17a31.47,31.47,0,0,1,4-2.28,55.5,55.5,0,0,0,9.78,7.64A3.63,3.63,0,0,1,71.6,108.58Zm20.24.71a40.65,40.65,0,0,1-18-.11c-.1-.27.28-.33.44-.49,5.07-3.33,13-3.33,17.94.27.19.33-.28.22-.38.33Zm5.23-1.52-2.56.83a5.23,5.23,0,0,1-1.2-.88l.11-.15a49.53,49.53,0,0,0,9.65-7.59,22.41,22.41,0,0,1,4.2,2.34,36.71,36.71,0,0,1-10.2,5.44Z" transform="translate(-32.26 -23.13)"></path><path class="cls-1" d="M97.6,179.55s3-2.75,5.13-4.82a11.36,11.36,0,0,0,3.8-9c0-4.45-4.25-9.8-11.16-9.8C89.86,156,84,159.3,84,167.2h8.24a8.92,8.92,0,0,1,0-2.19,3.26,3.26,0,0,1,3.24-2.69c2.08,0,3.13,2,3.13,3.59s-.47,4.33-3.79,7.73-9.29,9.87-10.58,11.6c-1.72-2.39-6.76-8.87-8.4-10.94,2-.58,6.29-2.19,6.29-8.35,0-8.82-9-8.9-9-8.9H60.79v29.17h7.52V175l7,11.23h31.5v-6.67ZM68.21,170.2v-7.28s6.13-.8,6.13,3.65C74.34,170.55,68.21,170.2,68.21,170.2Z" transform="translate(-32.26 -23.13)"></path><path class="cls-1" d="M67.93,195.56l1.84-.44s-.54-2.41,1-2.41,1.38,2.35.14,3.58-3.36,2.9-3.36,2.9v1.58h6.4v-1.94H71.11v-.24s2.85-2,2.85-4.79a2.85,2.85,0,0,0-2.74-3H71C69.59,190.86,67,191.88,67.93,195.56Z" transform="translate(-32.26 -23.13)"></path><path class="cls-1" d="M80.22,190.88c-2.34,0-4.23,2.22-4.23,4.94s1.89,4.94,4.23,4.94,4.22-2.2,4.22-4.94S82.53,190.88,80.22,190.88Zm0,8c-1.26,0-2.28-1.36-2.28-3s1-3,2.28-3,2.27,1.37,2.27,3-1,3-2.27,3Z" transform="translate(-32.26 -23.13)"></path><polygon class="cls-1" points="57.37 175.75 57.37 167.9 55.91 167.9 53.75 168.91 54.49 170.6 55.32 170.3 55.32 175.75 54.03 175.75 54.03 177.63 58.66 177.63 58.66 175.75 57.37 175.75"></polygon><path class="cls-1" d="M97.78,195.44a2.63,2.63,0,0,0-1.28-4.55h-.38A2.81,2.81,0,0,0,93,193.38v.27h2.11s0-1,.82-1a.81.81,0,0,1,.85.76.43.43,0,0,1,0,.16,1.45,1.45,0,0,1-.19.71.94.94,0,0,1-.81.43h-.48v1.66h.75a1.35,1.35,0,0,1,.89.32,1.52,1.52,0,0,1,.48,1.18c0,1-.76,1.19-1.39,1.19a2,2,0,0,1-1.71-1.06l-1.73.82a4,4,0,0,0,3.5,2A3,3,0,0,0,99.3,198h0C99.25,197.19,99.06,195.73,97.78,195.44Z" transform="translate(-32.26 -23.13)"></path><path class="cls-1" d="M54.24,201.09l-7.67,1.69-1.67,7.65a51.61,51.61,0,0,1,70.64-74.58L114,143l-8.4,1.86a38.43,38.43,0,0,0-51.37,56.24Z" transform="translate(-32.26 -23.13)"></path><path class="cls-1" d="M135.27,176.41A51.61,51.61,0,0,1,51.84,217l1.61-7.49,8-1.79a38.42,38.42,0,0,0,51.48-56.27l8-1.75,1.58-7.25A51.38,51.38,0,0,1,135.27,176.41Z" transform="translate(-32.26 -23.13)"></path><rect class="cls-2" x="117.71" width="0.98" height="219.27"></rect><path class="cls-2" d="M593.85,116.38V92.68c1.61,0,2.69-.53,4.3-.53h31.24a33.56,33.56,0,0,1,33.39,33.39v31.78c1,0,3.24.54,4.86.54h51.7c8.07,0,10.77-2.16,10.77-10.78v-55h24.78v56.56c0,19.93-14,33.93-33.4,33.93h-133c-4.3,0-5.38-1.62-5.38-5.38a65.27,65.27,0,0,0,0-14.52c0-3.76,1.62-4.84,4.85-4.84h37.17c10.22,0,12.38-2.16,12.38-12.39V126.61c0-7-3.22-10.23-10.23-10.23H596C595.46,116.92,594.92,116.38,593.85,116.38Z" transform="translate(-32.26 -23.13)"></path><path class="cls-2" d="M501.74,228.41V203.64h22.62c8.62,0,11.31-2.7,11.85-11.32v-9.15H502.28c-16.69,0-30.7-10.24-33.4-27a134,134,0,0,1,.54-38.78c2.16-14.52,16.71-25.32,31.79-25.32,11.31,0,22.61-.53,33.38,1,15.09,2.16,25.86,16.7,26.4,31.77v70.1c0,18.31-15.08,32.85-33.39,32.85C519.57,228.41,510.9,228.41,501.74,228.41Zm15.62-70.51h15.09c2.68,0,3.76-1,3.76-3.78V126.61q0-9.67-9.69-9.69h-23.7c-5.93,0-9.15,3.77-9.69,9.69V148.7c0,5.92,3.22,9.16,9.15,9.16,4.85.54,10.24,0,15.08,0Z" transform="translate(-32.26 -23.13)"></path><path class="cls-2" d="M421.48,92.15h24.25v57.69c0,19.39-14,32.85-33.4,32.85H358.47c-5.92,0-5.92,0-5.92,5.93,0,7,0,14-3.24,20.46-6.46,11.85-16.15,18.85-29.62,18.85H295.45v-24.8h22.63c7,0,10.24-3.24,10.24-10.24V92.15h24.23V153c0,4.32,1.62,5.4,5.38,5.4H411.8c7,0,9.16-2.7,9.68-9.7Z" transform="translate(-32.26 -23.13)"></path><path class="cls-3" d="M165.65,165.36c9.69,7,20.47,8.08,30.7,7.54,19.39-.54,38.79-.54,58.18-1h5.92v54.39c-.54,0-1.62.54-2.16.54-16.16,0-32.85,0-49,.54-6.46,0-10.76-2.14-14-7.54-2.7-4.3-5.4-8.07-7.54-12.38-7-13.48-14-26.4-21-39.86C166.19,167.55,166.19,167,165.65,165.36Z" transform="translate(-32.26 -23.13)"></path><path class="cls-3" d="M339.65,45.84C333.19,61.46,326.73,75.47,320.26,90c-.54,1-2.15,2.69-3.23,2.69-15.09-1-30.7-2.69-45.78-3.77a6.94,6.94,0,0,0-1.62-1,82.87,82.87,0,0,1,9.16-5.46c2.7-1,3.23-2.7,1.62-5.38-5.93-9.7-11.32-18.85-16.7-28.55C257.25,36.73,248.09,29.19,233.55,26h66.22c6.46,0,11.3,2.7,14.51,9.16,2.7,6.46,7,12.44,10.78,18.85A133.21,133.21,0,0,0,339.65,45.84Z" transform="translate(-32.26 -23.13)"></path><path class="cls-3" d="M229.22,106.14C214.71,98.07,200.68,90,186.14,81.91a30.86,30.86,0,0,1,2.16-4.3c8.07-13.48,16.15-26.4,23.15-39.86,4.32-8.08,14.52-10.24,22.63-8.08,12.38,3.22,21.57,10.77,27.47,22.08a4.59,4.59,0,0,1,0,3.77C251.29,72.75,240,89.45,229.22,106.14Z" transform="translate(-32.26 -23.13)"></path><path class="cls-3" d="M158.65,107.76h8.08c11.85-.54,23.69-.54,35.54-1a7.27,7.27,0,0,1,4.86,2.7c7,12.44,13.48,25.31,19.92,37.7,0,.54,0,.54.54,2.16-3.77-2.16-7-3.77-9.7-5.93-2.15-1.61-3.76-1-5.38.54l-8.08,9.69c-3.77,4.86-3.23,8.62.54,13.48-11.31,4.31-30.7,0-38.24-9.15-6.46-7.54-6.46-16.7-3.78-25.31,1.62-5.4,4.86-10.78,7.55-16.71-3.77-2.15-7.55-4.84-11.85-7.54Z" transform="translate(-32.26 -23.13)"></path><path class="cls-2" d="M445.73,216A12.44,12.44,0,0,1,433.79,229h-1c-7,0-12.38-5.92-12.38-12.92,0-7.55,5.38-12.93,12.92-12.44C440.88,203.64,445.73,209,445.73,216Z" transform="translate(-32.26 -23.13)"></path><path class="cls-2" d="M703.72,71.68c-7.54,0-12.93-5.39-12.93-12.39s5.93-12.39,12.93-12.39c7.54,0,12.39,4.85,12.39,12.39C716.65,66.84,711.8,71.68,703.72,71.68Z" transform="translate(-32.26 -23.13)"></path><path class="cls-2" d="M742.51,71.68c-8.07,0-12.93-4.85-12.93-12.39S735,46.9,742.51,46.36c7,0,12.92,5.39,12.45,12.4C754.89,66.29,750,71.68,742.51,71.68Z" transform="translate(-32.26 -23.13)"></path><path class="cls-2" d="M407.49,216c0,7.54-5.39,12.92-12.93,12.38-7.54,0-12.39-5.38-12.39-13.48a12.19,12.19,0,0,1,12-12.39h.42A13.57,13.57,0,0,1,407.49,216Z" transform="translate(-32.26 -23.13)"></path><path class="cls-4" d="M586.31,197.18v1.6H576.07v27h-1.62v-27H564.22v-1.6Z" transform="translate(-32.26 -23.13)"></path><path class="cls-4" d="M608.38,225.19h-1.61l-3.21-8.62H589l-3.22,8.62H584.2l11.32-28.55h2.13ZM590.08,215H603l-6.46-16.17Z" transform="translate(-32.26 -23.13)"></path><path class="cls-4" d="M612.7,197.18h9.15a15.48,15.48,0,0,1,4.85,1c1.61.53,2.69,1.61,4.31,3.23a12,12,0,0,1,2.7,4.31,19,19,0,0,1,1,5.38,16.08,16.08,0,0,1-1,5.4,11.87,11.87,0,0,1-2.7,4.3A30.16,30.16,0,0,1,626.7,224a15.48,15.48,0,0,1-4.85,1H612.7Zm1,26.39h8.08a10.05,10.05,0,0,0,4.31-1,9.67,9.67,0,0,0,3.77-2.7c1-1,1.62-2.69,2.7-3.76a11.41,11.41,0,0,0,0-9.69,14.11,14.11,0,0,0-6.47-6.48,12.84,12.84,0,0,0-4.31-1H613.7Z" transform="translate(-32.26 -23.13)"></path><path class="cls-3" d="M636.93,197.18h1.62l7,25.31,7-25.31h1l7,25.31,7-25.31h1.62l-7.52,28.54h-1.6l-7-25.32-7,25.32h-1.62Z" transform="translate(-32.26 -23.13)"></path><path class="cls-3" d="M691.33,197.18v1.6H675.17v11.86h15.08v1.61H675.17v11.86h16.16v1.61H673.56V197.18Z" transform="translate(-32.26 -23.13)"></path><path class="cls-3" d="M715,197.18v1.6H698.88v11.86H714v1.61H698.88v11.86H715v1.61H697.26V197.18Z" transform="translate(-32.26 -23.13)"></path><path class="cls-3" d="M738.73,197.18v1.6H722.57v11.86h15.08v1.61H722.57v11.86h16.16v1.61H721V197.18Z" transform="translate(-32.26 -23.13)"></path><path class="cls-4" d="M755.42,197.18a6.79,6.79,0,0,1,3.24.54,9.22,9.22,0,0,1,2.69,2.12c.54,1,1,1.62,1.62,2.7a8,8,0,0,1,.54,3.77,6.77,6.77,0,0,1-.54,3.23,11.33,11.33,0,0,1-1.62,2.69c-.54.54-1,1.62-2.15,2.16s-1.62,1-2.7,1L763,225.62h-1.62l-6.46-10.23H745.2v10.23h-1.65v-28.5Zm0,16.69a4.79,4.79,0,0,0,2.7-.54,7.57,7.57,0,0,0,2.16-1.61c.53-.54,1-1.62,1.61-2.16a4.74,4.74,0,0,0,.54-2.69c0-1,0-2.15-.54-2.69a9.52,9.52,0,0,0-3.77-3.78,5,5,0,0,0-2.7-.54h-9.69V215h9.69Z" transform="translate(-32.26 -23.13)"></path></svg> 