<svg xmlns="http://www.w3.org/2000/svg" xmlns:xlink="http://www.w3.org/1999/xlink" width="500" zoomAndPan="magnify" viewBox="0 0 375 374.999991" height="500" preserveAspectRatio="xMidYMid meet" version="1.0"><defs><clipPath id="dfb512414d"><path d="M 131 201 L 223 201 L 223 293 L 131 293 Z M 131 201 " clip-rule="nonzero"/></clipPath><clipPath id="9af4c072cc"><path d="M 124.132812 265.316406 L 195.410156 194.039062 L 229.710938 228.335938 L 158.433594 299.613281 Z M 124.132812 265.316406 " clip-rule="nonzero"/></clipPath><clipPath id="0378ed02cb"><path d="M 136.332031 253.117188 L 183.164062 206.285156 C 186.398438 203.050781 190.789062 201.230469 195.363281 201.230469 C 199.9375 201.230469 204.324219 203.050781 207.558594 206.285156 L 217.464844 216.1875 C 220.699219 219.421875 222.515625 223.808594 222.515625 228.386719 C 222.515625 232.960938 220.699219 237.347656 217.464844 240.582031 L 170.628906 287.417969 C 167.394531 290.652344 163.007812 292.46875 158.433594 292.46875 C 153.859375 292.46875 149.46875 290.652344 146.234375 287.417969 L 136.332031 277.511719 C 133.097656 274.277344 131.277344 269.890625 131.277344 265.316406 C 131.277344 260.738281 133.097656 256.351562 136.332031 253.117188 Z M 136.332031 253.117188 " clip-rule="nonzero"/></clipPath><clipPath id="94107d8a2a"><path d="M 129 82 L 223 82 L 223 173 L 129 173 Z M 129 82 " clip-rule="nonzero"/></clipPath><clipPath id="4b15a9f6dd"><path d="M 155.449219 75.382812 L 229.703125 143.554688 L 196.894531 179.285156 L 122.644531 111.113281 Z M 155.449219 75.382812 " clip-rule="nonzero"/></clipPath><clipPath id="3626746d17"><path d="M 168.15625 87.046875 L 216.945312 131.84375 C 220.316406 134.9375 222.316406 139.242188 222.511719 143.8125 C 222.707031 148.386719 221.078125 152.847656 217.984375 156.214844 L 208.511719 166.53125 C 205.417969 169.902344 201.113281 171.90625 196.542969 172.101562 C 191.96875 172.296875 187.507812 170.667969 184.140625 167.574219 L 135.351562 122.777344 C 131.980469 119.683594 129.980469 115.378906 129.785156 110.808594 C 129.589844 106.238281 131.21875 101.773438 134.3125 98.40625 L 143.785156 88.089844 C 146.878906 84.71875 151.183594 82.714844 155.753906 82.519531 C 160.328125 82.324219 164.789062 83.953125 168.15625 87.046875 Z M 168.15625 87.046875 " clip-rule="nonzero"/></clipPath><clipPath id="c48e8bdad7"><path d="M 131 118 L 223 118 L 223 210 L 131 210 Z M 131 118 " clip-rule="nonzero"/></clipPath><clipPath id="8e79756074"><path d="M 124.132812 182.414062 L 195.410156 111.132812 L 229.710938 145.433594 L 158.433594 216.710938 Z M 124.132812 182.414062 " clip-rule="nonzero"/></clipPath><clipPath id="21cb3f0390"><path d="M 136.332031 170.214844 L 183.164062 123.382812 C 186.398438 120.144531 190.789062 118.328125 195.363281 118.328125 C 199.9375 118.328125 204.324219 120.144531 207.558594 123.382812 L 217.464844 133.285156 C 220.699219 136.519531 222.515625 140.90625 222.515625 145.480469 C 222.515625 150.058594 220.699219 154.445312 217.464844 157.679688 L 170.628906 204.511719 C 167.394531 207.75 163.007812 209.566406 158.433594 209.566406 C 153.859375 209.566406 149.46875 207.75 146.234375 204.511719 L 136.332031 194.609375 C 133.097656 191.375 131.277344 186.988281 131.277344 182.414062 C 131.277344 177.835938 133.097656 173.449219 136.332031 170.214844 Z M 136.332031 170.214844 " clip-rule="nonzero"/></clipPath><clipPath id="9977f79dd7"><path d="M 209.363281 165.148438 L 252.351562 165.148438 L 252.351562 208.136719 L 209.363281 208.136719 Z M 209.363281 165.148438 " clip-rule="nonzero"/></clipPath><clipPath id="af84d71e4d"><path d="M 230.855469 165.148438 C 218.984375 165.148438 209.363281 174.773438 209.363281 186.644531 C 209.363281 198.511719 218.984375 208.136719 230.855469 208.136719 C 242.726562 208.136719 252.351562 198.511719 252.351562 186.644531 C 252.351562 174.773438 242.726562 165.148438 230.855469 165.148438 Z M 230.855469 165.148438 " clip-rule="nonzero"/></clipPath></defs><g clip-path="url(#dfb512414d)"><g clip-path="url(#9af4c072cc)"><g clip-path="url(#0378ed02cb)"><path fill="#fec107" d="M 124.132812 265.316406 L 195.410156 194.039062 L 229.710938 228.335938 L 158.433594 299.613281 Z M 124.132812 265.316406 " fill-opacity="1" fill-rule="nonzero"/></g></g></g><g clip-path="url(#94107d8a2a)"><g clip-path="url(#4b15a9f6dd)"><g clip-path="url(#3626746d17)"><path fill="#ffffff" d="M 155.449219 75.382812 L 229.703125 143.554688 L 196.894531 179.285156 L 122.644531 111.113281 Z M 155.449219 75.382812 " fill-opacity="1" fill-rule="nonzero"/></g></g></g><g clip-path="url(#c48e8bdad7)"><g clip-path="url(#8e79756074)"><g clip-path="url(#21cb3f0390)"><path fill="#fec107" d="M 124.132812 182.414062 L 195.410156 111.132812 L 229.710938 145.433594 L 158.433594 216.710938 Z M 124.132812 182.414062 " fill-opacity="1" fill-rule="nonzero"/></g></g></g><g clip-path="url(#9977f79dd7)"><g clip-path="url(#af84d71e4d)"><path fill="#ffffff" d="M 209.363281 165.148438 L 252.351562 165.148438 L 252.351562 208.136719 L 209.363281 208.136719 Z M 209.363281 165.148438 " fill-opacity="1" fill-rule="nonzero"/></g></g></svg>